<svg width="151" height="181" viewBox="0 0 151 181" fill="none" xmlns="http://www.w3.org/2000/svg">
<ellipse cx="46.0359" cy="154.474" rx="43.3673" ry="19.3462" transform="rotate(9.8419 46.0359 154.474)" fill="#151B31"/>
<path d="M75.9062 48.3333C75.9996 41.0152 76.0411 32.7104 76.1345 25.3922C76.3382 21.0091 76.0881 16.6181 75.3877 12.2789C74.7446 8.99344 73.5002 5.67915 70.9488 3.32278C70.291 2.62791 69.3932 2.16433 68.4078 2.01049C66.458 1.84765 65.0268 3.61016 64.1348 5.20023C59.2707 13.8211 57.7772 23.6968 56.346 33.3426" fill="#FEFDFB"/>
<path d="M75.9062 48.3333C75.9996 41.0152 76.0411 32.7104 76.1345 25.3922C76.3382 21.0091 76.0881 16.6181 75.3877 12.2789C74.7446 8.99344 73.5002 5.67915 70.9488 3.32278C70.291 2.62791 69.3932 2.16433 68.4078 2.01049C66.458 1.84765 65.0268 3.61016 64.1348 5.20023C59.2707 13.8211 57.7772 23.6968 56.346 33.3426" stroke="#151B31" stroke-width="2.78016" stroke-miterlimit="10"/>
<path d="M12.8369 94.2643C11.4079 70.5966 8.96454 46.468 10.4766 28.3784C10.9745 22.4868 11.7213 15.1293 12.8277 9.31151C14.6717 -0.0744171 24.0944 -1.23609 27.0539 10.6208C29.3644 19.2973 31.0315 28.1325 32.0418 37.0544L32.6688 45.1219C32.5213 42.2914 32.3092 39.636 32.0418 37.0544L31.378 28.6366C47.3099 22.1826 66.9112 30.2685 76.002 44.8729C80.5197 52.1383 82.88 60.7497 88.4488 67.2406C96.9126 77.1152 110.733 79.9826 123.41 82.9145C128.776 84.1408 134.216 85.5145 138.964 88.3174C143.712 91.1203 147.76 95.5644 148.829 100.976C149.899 106.389 146.063 115.793 133.81 115.627C123.364 115.489 112.927 114.889 102.463 114.521C94.4324 114.244 85.6735 114.179 79.3026 119.075C74.619 122.671 72.0374 128.47 71.1339 134.297C70.2303 140.124 70.802 146.071 71.3828 151.944C68.2942 169.057 47.6049 170.495 29.5709 163.645C22.5365 161.063 16.0841 157.111 10.5873 152.018C14.6072 136.188 14.1554 115.387 12.8369 94.2643Z" fill="#FEFDFB" stroke="#151B31" stroke-width="2.78016" stroke-miterlimit="10"/>
<g clip-path="url(#clip0_2817_55977)">
<path d="M91.7228 49.2118C87.4571 47.3496 82.4894 49.298 80.6272 53.5637C85.9295 68.8134 96.7512 75.543 101.499 77.0016L111.766 54.1528C113.628 49.8871 111.68 44.9195 107.414 43.0572C103.149 41.195 98.1809 43.1435 96.3187 47.4092L94.9222 50.6085L91.7228 49.2118Z" fill="#64A2FF" fill-opacity="0.6" stroke="#151B31" stroke-width="2.5" stroke-linecap="round" stroke-linejoin="round"/>
</g>
<g clip-path="url(#clip1_2817_55977)">
<path d="M47.0837 66.446C44.8181 71.6358 47.1886 77.6796 52.3784 79.9452L75.0648 89.849L84.9684 67.1627C87.234 61.973 84.8635 55.9292 79.6737 53.6635C74.4839 51.3979 68.4401 53.7684 66.1745 58.9582L64.4755 62.8506L60.583 61.1513C55.3932 58.8857 49.3494 61.2562 47.0837 66.446Z" fill="#64A2FF" fill-opacity="0.6" stroke="#151B31" stroke-width="2.5" stroke-linecap="round" stroke-linejoin="round"/>
</g>
<path d="M46.954 74.1376L29.048 76.6918C24.7746 77.3014 22.0024 81.5185 23.1374 85.6833V85.6833" stroke="#151B31" stroke-width="3.03864"/>
<path d="M91.4899 62.3711C90.8914 60.8998 89.2135 60.1922 87.7422 60.7907C86.2709 61.3892 85.5633 63.0671 86.1618 64.5384L87.6614 68.225C88.2599 69.6964 89.9378 70.4039 91.4091 69.8054C92.8804 69.207 93.588 67.529 92.9895 66.0577L91.4899 62.3711Z" fill="#151B31"/>
<path d="M66.8015 70.1583C66.2769 68.5435 67.1606 66.8091 68.7755 66.2844C70.3903 65.7597 72.1247 66.6435 72.6494 68.2584L73.9425 72.2385C74.4672 73.8533 73.5834 75.5877 71.9686 76.1124C70.3537 76.637 68.6193 75.7532 68.0947 74.1384L66.8015 70.1583Z" fill="#151B31"/>
<path fill-rule="evenodd" clip-rule="evenodd" d="M64.2103 101.764L65.2022 104.82C65.8271 106.746 67.3319 109.774 69.7726 112.417C72.2016 115.048 75.4889 117.229 79.7021 117.672L79.4116 120.437C74.351 119.905 70.4806 117.282 67.73 114.303C65.9627 112.389 64.6293 110.299 63.7079 108.448L60.5003 114.281L58.0641 112.942L64.2103 101.764Z" fill="#151B31"/>
<path d="M144.834 70.6222C145.516 71.6417 145.921 72.8133 146.012 74.0271C146.102 75.2409 145.876 76.4574 145.353 77.5626C144.819 78.6686 143.971 79.602 142.909 80.2524C141.848 80.9028 140.617 81.2429 139.363 81.2324C132.056 81.1254 131.277 75.645 132.744 71.362C133.214 70.2022 134.023 69.2023 135.07 68.486C136.117 67.7697 137.356 67.3685 138.635 67.332C139.869 67.3262 141.084 67.6248 142.168 68.2001C143.252 68.7753 144.169 69.6085 144.834 70.6222Z" fill="#151B31" stroke="white" stroke-width="0.332262" stroke-miterlimit="10"/>
<defs>
<clipPath id="clip0_2817_55977">
<rect width="44.9475" height="44.9475" fill="white" transform="translate(68.7773 45.4999) rotate(-21.4161)"/>
</clipPath>
<clipPath id="clip1_2817_55977">
<rect width="54.6845" height="54.6845" fill="white" transform="translate(32.668 56.6367) rotate(-21.4161)"/>
</clipPath>
</defs>
</svg>
