<svg width="154" height="77" viewBox="0 0 154 77" fill="none" xmlns="http://www.w3.org/2000/svg">
<g filter="url(#filter0_d_2858_56328)">
<rect x="7.43298" y="13.6782" width="135.698" height="52.6596" rx="26.3298" transform="rotate(-4.23365 7.43298 13.6782)" fill="#FFB07B"/>
</g>
<path d="M43.998 26.9233L45.4933 46.4561L42.7847 46.6634L31.7594 33.0982L31.5782 33.1121L32.6749 47.4374L29.7278 47.663L28.2325 28.1302L30.9602 27.9214L41.9964 41.505L42.1776 41.4911L41.0795 27.1467L43.998 26.9233ZM55.8999 45.9568C54.4566 46.0673 53.1899 45.8541 52.0999 45.3171C51.0158 44.7734 50.1477 43.9604 49.4957 42.8783C48.8495 41.7894 48.4683 40.4851 48.3519 38.9654C48.237 37.4649 48.4156 36.1209 48.8875 34.9336C49.3657 33.7458 50.0858 32.7921 51.0476 32.0725C52.0158 31.3524 53.1802 30.9403 54.5409 30.8361C55.3675 30.7728 56.1791 30.8482 56.9757 31.0622C57.7724 31.2762 58.5015 31.6521 59.163 32.1899C59.8246 32.7276 60.3691 33.4502 60.7968 34.3576C61.2239 35.2587 61.4883 36.3737 61.5901 37.7026L61.6675 38.7135L50.0222 39.605L49.8586 37.4686L58.7094 36.7911C58.652 36.0408 58.4485 35.388 58.099 34.8328C57.749 34.2712 57.2846 33.843 56.7056 33.5484C56.133 33.2533 55.4779 33.1339 54.7403 33.1904C53.9392 33.2517 53.2548 33.5024 52.6873 33.9424C52.1257 34.3755 51.7068 34.9192 51.4307 35.5735C51.1605 36.221 51.0534 36.9103 51.1094 37.6415L51.2372 39.3106C51.3121 40.2897 51.5476 41.1095 51.9435 41.77C52.3458 42.4299 52.8723 42.9172 53.5232 43.2319C54.1736 43.5403 54.9152 43.6626 55.7482 43.5988C56.2886 43.5575 56.7756 43.4434 57.209 43.2568C57.6419 43.0637 58.0086 42.799 58.309 42.4626C58.6094 42.1263 58.8279 41.7226 58.9646 41.2516L61.7009 41.5314C61.5456 42.3428 61.211 43.0687 60.6972 43.7092C60.1893 44.3429 59.5284 44.8572 58.7144 45.2521C57.9063 45.6401 56.9681 45.875 55.8999 45.9568ZM68.4763 44.6966L63.0439 30.377L65.991 30.1514L69.6854 40.6899L69.8284 40.679L71.8851 29.7002L74.8322 29.4745L78.5134 39.9661L78.6565 39.9552L80.6883 29.0262L83.6353 28.8006L80.4554 43.7795L77.5465 44.0022L73.7611 33.6529L73.5417 33.6697L71.3757 44.4746L68.4763 44.6966Z" fill="#151B31"/>
<path d="M111.281 31.8003L116.741 36.495L121.423 31.0239" stroke="#151B31" stroke-width="1.69519" stroke-linecap="round" stroke-linejoin="round"/>
<defs>
<filter id="filter0_d_2858_56328" x="0.880115" y="0.477092" width="152.321" height="75.6394" filterUnits="userSpaceOnUse" color-interpolation-filters="sRGB">
<feFlood flood-opacity="0" result="BackgroundImageFix"/>
<feColorMatrix in="SourceAlpha" type="matrix" values="0 0 0 0 0 0 0 0 0 0 0 0 0 0 0 0 0 0 127 0" result="hardAlpha"/>
<feOffset dy="3.36944"/>
<feGaussianBlur stdDeviation="4.2118"/>
<feColorMatrix type="matrix" values="0 0 0 0 0.541176 0 0 0 0 0.521569 0 0 0 0 0.490196 0 0 0 0.2 0"/>
<feBlend mode="normal" in2="BackgroundImageFix" result="effect1_dropShadow_2858_56328"/>
<feBlend mode="normal" in="SourceGraphic" in2="effect1_dropShadow_2858_56328" result="shape"/>
</filter>
</defs>
</svg>
