<svg width="348" height="394" viewBox="0 0 348 394" fill="none" xmlns="http://www.w3.org/2000/svg">
<rect width="348" height="393.321" rx="8.09302" fill="white"/>
<rect x="14" y="21" width="320" height="351" rx="10" fill="#F5F3F0"/>
<g filter="url(#filter0_d_2613_45675)">
<rect x="28" y="40" width="292" height="313" rx="6.47727" fill="white"/>
</g>
<path d="M178.571 108.833C178.633 103.931 178.661 98.3684 178.724 93.4668C178.86 90.531 178.692 87.5899 178.223 84.6836C177.793 82.483 176.959 80.2631 175.25 78.6848C174.81 78.2194 174.208 77.9089 173.548 77.8059C172.242 77.6968 171.284 78.8773 170.686 79.9423C167.428 85.7165 166.428 92.3312 165.469 98.7919" fill="#FEFDFB"/>
<path d="M178.571 108.833C178.633 103.931 178.661 98.3684 178.724 93.4668C178.86 90.531 178.692 87.5899 178.223 84.6836C177.793 82.483 176.959 80.2631 175.25 78.6848C174.81 78.2194 174.208 77.9089 173.548 77.8059C172.242 77.6968 171.284 78.8773 170.686 79.9423C167.428 85.7165 166.428 92.3312 165.469 98.7919" stroke="black" stroke-width="1.69175" stroke-miterlimit="10"/>
<path d="M136.326 139.597C135.369 123.744 133.733 107.583 134.745 95.4669C135.079 91.5208 135.579 86.5927 136.32 82.696C137.555 76.4094 143.866 75.6313 145.849 83.573C147.396 89.3845 148.513 95.3022 149.19 101.278L149.61 106.682C149.511 104.786 149.369 103.007 149.19 101.278L148.745 95.6398C159.416 91.317 172.545 96.7329 178.634 106.515C181.66 111.381 183.241 117.149 186.971 121.496C192.64 128.11 201.896 130.031 210.388 131.995C213.982 132.816 217.625 133.736 220.805 135.614C223.986 137.491 226.697 140.468 227.413 144.093C228.129 147.718 225.56 154.016 217.353 153.905C210.357 153.813 203.366 153.411 196.357 153.164C190.978 152.979 185.112 152.936 180.845 156.215C177.707 158.623 175.978 162.508 175.373 166.411C174.768 170.314 175.151 174.297 175.54 178.231C173.471 189.692 159.614 190.656 147.535 186.067C142.823 184.338 138.501 181.691 134.82 178.28C137.512 167.677 137.209 153.745 136.326 139.597Z" fill="#FEFDFB" stroke="black" stroke-width="1.77532" stroke-miterlimit="10"/>
<path d="M189.021 118.235C188.62 117.25 187.496 116.776 186.511 117.177C185.525 117.577 185.051 118.701 185.452 119.687L186.457 122.156C186.857 123.142 187.981 123.615 188.967 123.215C189.952 122.814 190.426 121.69 190.025 120.704L189.021 118.235Z" fill="black"/>
<path fill-rule="evenodd" clip-rule="evenodd" d="M170.67 123.872C170.18 123.912 169.816 124.341 169.855 124.83C169.895 125.32 170.324 125.684 170.813 125.645L174.88 125.315L173.389 126.918C173.055 127.277 173.075 127.84 173.435 128.174C173.794 128.509 174.357 128.488 174.691 128.129L177.628 124.971C177.963 124.612 177.942 124.049 177.583 123.715C177.462 123.603 177.319 123.531 177.17 123.497C177.021 123.413 176.846 123.371 176.662 123.386L170.67 123.872Z" fill="black"/>
<path fill-rule="evenodd" clip-rule="evenodd" d="M170.736 144.622L171.401 146.67C171.819 147.959 172.827 149.987 174.462 151.758C176.089 153.52 178.29 154.981 181.112 155.277L180.918 157.129C177.528 156.773 174.936 155.016 173.094 153.021C171.91 151.739 171.017 150.339 170.4 149.099L168.251 153.006L166.619 152.109L170.736 144.622Z" fill="black"/>
<path d="M224.733 123.763C225.19 124.446 225.461 125.23 225.522 126.043C225.583 126.856 225.431 127.671 225.081 128.412C224.723 129.152 224.155 129.778 223.444 130.213C222.733 130.649 221.909 130.877 221.069 130.87C216.174 130.798 215.653 127.127 216.636 124.258C216.951 123.482 217.492 122.812 218.193 122.332C218.894 121.852 219.725 121.584 220.581 121.559C221.407 121.555 222.222 121.755 222.948 122.141C223.674 122.526 224.288 123.084 224.733 123.763Z" fill="black"/>
<path d="M161.898 127.04C160.652 123.281 162.822 119.243 166.652 118.19L190.615 111.605C194.217 110.614 197.953 112.647 199.064 116.201L200.147 119.665C201.273 123.265 199.295 127.107 195.703 128.298L172.204 136.087C168.568 137.292 164.647 135.331 163.445 131.707L161.898 127.04Z" fill="#4A2CFE" fill-opacity="0.6"/>
<path fill-rule="evenodd" clip-rule="evenodd" d="M191.075 113.281L167.111 119.862C164.238 120.651 162.614 123.687 163.551 126.516L165.103 131.198C166.007 133.925 168.951 135.403 171.678 134.499L195.176 126.71C197.871 125.817 199.352 122.929 198.505 120.22L197.418 116.745C196.582 114.07 193.777 112.539 191.075 113.281ZM166.652 118.19C162.821 119.242 160.655 123.29 161.905 127.061L163.457 131.744C164.663 135.38 168.588 137.351 172.224 136.145L195.722 128.356C199.314 127.165 201.289 123.314 200.16 119.702L199.073 116.227C197.958 112.661 194.219 110.619 190.616 111.609L166.652 118.19Z" fill="black"/>
<path d="M162.542 128.042L148.219 130.085C144.8 130.572 142.583 133.945 143.491 137.277V137.277" stroke="black" stroke-width="2.43058"/>
<rect x="44.3239" y="175.324" width="259.352" height="100.352" rx="6.15341" fill="#FAFAF9"/>
<path d="M63.6921 208.5L61.1159 199.079H62.2751L64.2441 206.752H64.3361L66.3418 199.079H67.6299L69.6357 206.752H69.7277L71.6966 199.079H72.8559L70.2797 208.5H69.102L67.0227 200.992H66.9491L64.8697 208.5H63.6921ZM75.2159 204.249V208.5H74.1302V199.079H75.2159V202.538H75.3079C75.4735 202.173 75.7219 201.883 76.0532 201.669C76.3874 201.451 76.8321 201.342 77.3873 201.342C77.8688 201.342 78.2904 201.438 78.6523 201.632C79.0142 201.822 79.2949 202.115 79.4942 202.51C79.6966 202.903 79.7978 203.403 79.7978 204.01V208.5H78.7121V204.084C78.7121 203.522 78.5665 203.088 78.2751 202.782C77.9868 202.472 77.5866 202.317 77.0744 202.317C76.7187 202.317 76.3997 202.392 76.1176 202.543C75.8385 202.693 75.6177 202.912 75.4551 203.2C75.2956 203.489 75.2159 203.838 75.2159 204.249ZM83.8634 208.666C83.4156 208.666 83.0092 208.581 82.6443 208.413C82.2793 208.241 81.9895 207.994 81.7748 207.672C81.5601 207.347 81.4528 206.954 81.4528 206.494C81.4528 206.089 81.5325 205.761 81.692 205.51C81.8515 205.255 82.0646 205.056 82.3315 204.912C82.5983 204.768 82.8927 204.66 83.2147 204.59C83.5398 204.516 83.8664 204.458 84.1946 204.415C84.624 204.36 84.9721 204.318 85.2389 204.291C85.5088 204.26 85.705 204.209 85.8277 204.139C85.9535 204.068 86.0163 203.946 86.0163 203.771V203.734C86.0163 203.28 85.8921 202.927 85.6437 202.676C85.3984 202.424 85.0257 202.299 84.5258 202.299C84.0075 202.299 83.6012 202.412 83.3067 202.639C83.0123 202.866 82.8053 203.108 82.6857 203.366L81.6552 202.998C81.8392 202.569 82.0846 202.234 82.3913 201.995C82.701 201.753 83.0384 201.584 83.4033 201.489C83.7714 201.391 84.1333 201.342 84.489 201.342C84.716 201.342 84.9767 201.369 85.2711 201.425C85.5686 201.477 85.8553 201.586 86.1313 201.751C86.4104 201.917 86.642 202.167 86.826 202.501C87.01 202.835 87.102 203.283 87.102 203.844V208.5H86.0163V207.543H85.9611C85.8875 207.696 85.7648 207.861 85.5931 208.035C85.4214 208.21 85.1929 208.359 84.9076 208.482C84.6224 208.604 84.2743 208.666 83.8634 208.666ZM84.029 207.69C84.4583 207.69 84.8202 207.606 85.1147 207.437C85.4122 207.269 85.636 207.051 85.7863 206.784C85.9397 206.517 86.0163 206.237 86.0163 205.942V204.949C85.9703 205.004 85.8691 205.054 85.7127 205.1C85.5594 205.143 85.3815 205.182 85.1791 205.215C84.9797 205.246 84.785 205.274 84.5948 205.298C84.4077 205.32 84.2559 205.338 84.1394 205.353C83.8572 205.39 83.5935 205.45 83.3481 205.533C83.1059 205.613 82.9096 205.734 82.7593 205.896C82.6121 206.056 82.5385 206.273 82.5385 206.549C82.5385 206.927 82.678 207.212 82.9571 207.405C83.2393 207.595 83.5966 207.69 84.029 207.69ZM92.1566 201.434V202.354H88.4948V201.434H92.1566ZM89.562 199.741H90.6477V206.476C90.6477 206.783 90.6922 207.013 90.7811 207.166C90.8731 207.316 90.9897 207.417 91.1308 207.47C91.2749 207.519 91.4267 207.543 91.5862 207.543C91.7058 207.543 91.8039 207.537 91.8806 207.525C91.9573 207.509 92.0186 207.497 92.0646 207.488L92.2854 208.463C92.2118 208.491 92.1091 208.518 91.9772 208.546C91.8453 208.577 91.6782 208.592 91.4758 208.592C91.1691 208.592 90.8685 208.526 90.5741 208.394C90.2828 208.262 90.0405 208.061 89.8473 207.792C89.6571 207.522 89.562 207.181 89.562 206.77V199.741ZM99.5126 208.666C99.0648 208.666 98.6584 208.581 98.2935 208.413C97.9285 208.241 97.6387 207.994 97.424 207.672C97.2093 207.347 97.102 206.954 97.102 206.494C97.102 206.089 97.1817 205.761 97.3412 205.51C97.5007 205.255 97.7138 205.056 97.9807 204.912C98.2475 204.768 98.5419 204.66 98.8639 204.59C99.189 204.516 99.5156 204.458 99.8438 204.415C100.273 204.36 100.621 204.318 100.888 204.291C101.158 204.26 101.354 204.209 101.477 204.139C101.603 204.068 101.666 203.946 101.666 203.771V203.734C101.666 203.28 101.541 202.927 101.293 202.676C101.048 202.424 100.675 202.299 100.175 202.299C99.6567 202.299 99.2503 202.412 98.9559 202.639C98.6615 202.866 98.4545 203.108 98.3349 203.366L97.3044 202.998C97.4884 202.569 97.7338 202.234 98.0405 201.995C98.3502 201.753 98.6876 201.584 99.0525 201.489C99.4206 201.391 99.7825 201.342 100.138 201.342C100.365 201.342 100.626 201.369 100.92 201.425C101.218 201.477 101.505 201.586 101.781 201.751C102.06 201.917 102.291 202.167 102.475 202.501C102.659 202.835 102.751 203.283 102.751 203.844V208.5H101.666V207.543H101.61C101.537 207.696 101.414 207.861 101.242 208.035C101.071 208.21 100.842 208.359 100.557 208.482C100.272 208.604 99.9235 208.666 99.5126 208.666ZM99.6782 207.69C100.108 207.69 100.469 207.606 100.764 207.437C101.061 207.269 101.285 207.051 101.436 206.784C101.589 206.517 101.666 206.237 101.666 205.942V204.949C101.62 205.004 101.518 205.054 101.362 205.1C101.209 205.143 101.031 205.182 100.828 205.215C100.629 205.246 100.434 205.274 100.244 205.298C100.057 205.32 99.9051 205.338 99.7886 205.353C99.5064 205.39 99.2427 205.45 98.9973 205.533C98.755 205.613 98.5588 205.734 98.4085 205.896C98.2613 206.056 98.1877 206.273 98.1877 206.549C98.1877 206.927 98.3272 207.212 98.6063 207.405C98.8885 207.595 99.2457 207.69 99.6782 207.69ZM104.733 208.5V201.434H105.782V202.501H105.855C105.984 202.152 106.217 201.868 106.555 201.65C106.892 201.432 107.272 201.323 107.695 201.323C107.775 201.323 107.875 201.325 107.994 201.328C108.114 201.331 108.205 201.336 108.266 201.342V202.446C108.229 202.437 108.145 202.423 108.013 202.405C107.884 202.383 107.748 202.372 107.603 202.372C107.26 202.372 106.953 202.444 106.683 202.589C106.417 202.73 106.205 202.926 106.048 203.177C105.895 203.426 105.818 203.71 105.818 204.028V208.5H104.733ZM112.3 208.647C111.619 208.647 111.032 208.497 110.538 208.196C110.048 207.893 109.669 207.47 109.402 206.927C109.138 206.381 109.007 205.746 109.007 205.022C109.007 204.298 109.138 203.66 109.402 203.108C109.669 202.553 110.04 202.121 110.515 201.811C110.994 201.498 111.552 201.342 112.19 201.342C112.558 201.342 112.921 201.403 113.28 201.526C113.639 201.649 113.966 201.848 114.26 202.124C114.555 202.397 114.789 202.759 114.964 203.21C115.139 203.66 115.226 204.216 115.226 204.875V205.335H109.779V204.397H114.122C114.122 203.998 114.042 203.642 113.883 203.329C113.726 203.016 113.503 202.77 113.211 202.589C112.923 202.408 112.583 202.317 112.19 202.317C111.758 202.317 111.383 202.424 111.067 202.639C110.755 202.851 110.514 203.127 110.345 203.467C110.177 203.808 110.092 204.173 110.092 204.562V205.188C110.092 205.721 110.184 206.174 110.368 206.545C110.555 206.913 110.814 207.194 111.146 207.387C111.477 207.577 111.862 207.672 112.3 207.672C112.586 207.672 112.843 207.632 113.073 207.552C113.306 207.47 113.507 207.347 113.676 207.184C113.845 207.019 113.975 206.813 114.067 206.568L115.116 206.862C115.005 207.218 114.82 207.531 114.559 207.801C114.298 208.068 113.976 208.276 113.593 208.426C113.21 208.574 112.779 208.647 112.3 208.647ZM121.22 211.15C121.036 211.15 120.872 211.134 120.728 211.104C120.584 211.076 120.484 211.049 120.429 211.021L120.705 210.064C120.969 210.132 121.202 210.156 121.404 210.138C121.607 210.119 121.786 210.029 121.943 209.866C122.102 209.707 122.248 209.448 122.38 209.089L122.582 208.537L119.969 201.434H121.147L123.097 207.065H123.171L125.121 201.434H126.299L123.3 209.53C123.165 209.895 122.998 210.198 122.798 210.437C122.599 210.679 122.367 210.858 122.104 210.975C121.843 211.092 121.549 211.15 121.22 211.15ZM130.35 208.647C129.712 208.647 129.152 208.495 128.671 208.192C128.192 207.888 127.818 207.463 127.548 206.917C127.281 206.372 127.148 205.734 127.148 205.004C127.148 204.268 127.281 203.625 127.548 203.076C127.818 202.527 128.192 202.101 128.671 201.797C129.152 201.494 129.712 201.342 130.35 201.342C130.988 201.342 131.546 201.494 132.024 201.797C132.506 202.101 132.88 202.527 133.147 203.076C133.417 203.625 133.552 204.268 133.552 205.004C133.552 205.734 133.417 206.372 133.147 206.917C132.88 207.463 132.506 207.888 132.024 208.192C131.546 208.495 130.988 208.647 130.35 208.647ZM130.35 207.672C130.834 207.672 131.233 207.548 131.546 207.299C131.859 207.051 132.09 206.724 132.241 206.319C132.391 205.915 132.466 205.476 132.466 205.004C132.466 204.531 132.391 204.091 132.241 203.683C132.09 203.276 131.859 202.946 131.546 202.694C131.233 202.443 130.834 202.317 130.35 202.317C129.865 202.317 129.466 202.443 129.154 202.694C128.841 202.946 128.609 203.276 128.459 203.683C128.309 204.091 128.234 204.531 128.234 205.004C128.234 205.476 128.309 205.915 128.459 206.319C128.609 206.724 128.841 207.051 129.154 207.299C129.466 207.548 129.865 207.672 130.35 207.672ZM139.662 205.611V201.434H140.748V208.5H139.662V207.304H139.588C139.423 207.663 139.165 207.968 138.816 208.219C138.466 208.468 138.024 208.592 137.491 208.592C137.049 208.592 136.656 208.495 136.313 208.302C135.969 208.106 135.7 207.811 135.503 207.419C135.307 207.023 135.209 206.525 135.209 205.924V201.434H136.295V205.85C136.295 206.365 136.439 206.776 136.727 207.083C137.018 207.39 137.389 207.543 137.84 207.543C138.11 207.543 138.385 207.474 138.664 207.336C138.946 207.198 139.182 206.986 139.372 206.701C139.565 206.416 139.662 206.053 139.662 205.611ZM147.981 208.5L145.828 201.434H146.968L148.496 206.844H148.569L150.078 201.434H151.238L152.728 206.825H152.802L154.329 201.434H155.47L153.317 208.5H152.25L150.704 203.072H150.594L149.048 208.5H147.981ZM159.535 208.647C158.898 208.647 158.338 208.495 157.856 208.192C157.378 207.888 157.004 207.463 156.734 206.917C156.467 206.372 156.334 205.734 156.334 205.004C156.334 204.268 156.467 203.625 156.734 203.076C157.004 202.527 157.378 202.101 157.856 201.797C158.338 201.494 158.898 201.342 159.535 201.342C160.173 201.342 160.732 201.494 161.21 201.797C161.691 202.101 162.066 202.527 162.332 203.076C162.602 203.625 162.737 204.268 162.737 205.004C162.737 205.734 162.602 206.372 162.332 206.917C162.066 207.463 161.691 207.888 161.21 208.192C160.732 208.495 160.173 208.647 159.535 208.647ZM159.535 207.672C160.02 207.672 160.419 207.548 160.732 207.299C161.044 207.051 161.276 206.724 161.426 206.319C161.576 205.915 161.652 205.476 161.652 205.004C161.652 204.531 161.576 204.091 161.426 203.683C161.276 203.276 161.044 202.946 160.732 202.694C160.419 202.443 160.02 202.317 159.535 202.317C159.051 202.317 158.652 202.443 158.339 202.694C158.027 202.946 157.795 203.276 157.645 203.683C157.494 204.091 157.419 204.531 157.419 205.004C157.419 205.476 157.494 205.915 157.645 206.319C157.795 206.724 158.027 207.051 158.339 207.299C158.652 207.548 159.051 207.672 159.535 207.672ZM164.395 208.5V201.434H165.443V202.501H165.517C165.646 202.152 165.879 201.868 166.216 201.65C166.554 201.432 166.934 201.323 167.357 201.323C167.437 201.323 167.537 201.325 167.656 201.328C167.776 201.331 167.866 201.336 167.928 201.342V202.446C167.891 202.437 167.806 202.423 167.675 202.405C167.546 202.383 167.409 202.372 167.265 202.372C166.922 202.372 166.615 202.444 166.345 202.589C166.078 202.73 165.867 202.926 165.71 203.177C165.557 203.426 165.48 203.71 165.48 204.028V208.5H164.395ZM170.227 205.924L170.208 204.581H170.429L173.52 201.434H174.864L171.57 204.765H171.478L170.227 205.924ZM169.215 208.5V199.079H170.3V208.5H169.215ZM173.704 208.5L170.944 205.004L171.717 204.249L175.085 208.5H173.704ZM176.261 208.5V201.434H177.347V208.5H176.261ZM176.813 200.256C176.602 200.256 176.419 200.184 176.266 200.04C176.115 199.896 176.04 199.723 176.04 199.52C176.04 199.318 176.115 199.144 176.266 199C176.419 198.856 176.602 198.784 176.813 198.784C177.025 198.784 177.206 198.856 177.356 199C177.509 199.144 177.586 199.318 177.586 199.52C177.586 199.723 177.509 199.896 177.356 200.04C177.206 200.184 177.025 200.256 176.813 200.256ZM180.421 204.249V208.5H179.335V201.434H180.384V202.538H180.476C180.642 202.179 180.893 201.891 181.231 201.673C181.568 201.452 182.003 201.342 182.537 201.342C183.016 201.342 183.434 201.44 183.793 201.636C184.152 201.83 184.431 202.124 184.63 202.52C184.83 202.912 184.929 203.409 184.929 204.01V208.5H183.844V204.084C183.844 203.529 183.699 203.096 183.411 202.786C183.123 202.474 182.727 202.317 182.224 202.317C181.878 202.317 181.568 202.392 181.295 202.543C181.025 202.693 180.812 202.912 180.656 203.2C180.499 203.489 180.421 203.838 180.421 204.249ZM189.765 211.297C189.241 211.297 188.79 211.23 188.413 211.095C188.036 210.963 187.721 210.788 187.47 210.57C187.221 210.355 187.024 210.125 186.876 209.88L187.741 209.273C187.839 209.402 187.964 209.549 188.114 209.714C188.264 209.883 188.47 210.029 188.73 210.152C188.994 210.277 189.339 210.34 189.765 210.34C190.336 210.34 190.807 210.202 191.178 209.926C191.549 209.65 191.734 209.218 191.734 208.629V207.194H191.642C191.563 207.322 191.449 207.482 191.302 207.672C191.158 207.859 190.949 208.026 190.676 208.173C190.406 208.318 190.041 208.39 189.581 208.39C189.011 208.39 188.499 208.255 188.045 207.985C187.594 207.715 187.237 207.322 186.973 206.807C186.712 206.292 186.582 205.666 186.582 204.93C186.582 204.206 186.709 203.576 186.964 203.039C187.218 202.5 187.573 202.083 188.026 201.788C188.48 201.491 189.005 201.342 189.6 201.342C190.06 201.342 190.425 201.419 190.695 201.572C190.968 201.722 191.176 201.894 191.32 202.087C191.468 202.277 191.581 202.434 191.661 202.556H191.771V201.434H192.82V208.702C192.82 209.31 192.682 209.803 192.406 210.184C192.133 210.567 191.765 210.848 191.302 211.026C190.842 211.207 190.33 211.297 189.765 211.297ZM189.729 207.414C190.164 207.414 190.532 207.315 190.833 207.115C191.133 206.916 191.362 206.629 191.518 206.255C191.675 205.881 191.753 205.433 191.753 204.912C191.753 204.403 191.676 203.953 191.523 203.564C191.369 203.174 191.142 202.869 190.842 202.648C190.541 202.428 190.17 202.317 189.729 202.317C189.269 202.317 188.885 202.434 188.579 202.667C188.275 202.9 188.046 203.213 187.893 203.605C187.743 203.998 187.668 204.433 187.668 204.912C187.668 205.402 187.744 205.836 187.898 206.214C188.054 206.588 188.284 206.882 188.588 207.097C188.894 207.309 189.275 207.414 189.729 207.414ZM201.321 208.647C200.684 208.647 200.124 208.495 199.642 208.192C199.164 207.888 198.79 207.463 198.52 206.917C198.253 206.372 198.12 205.734 198.12 205.004C198.12 204.268 198.253 203.625 198.52 203.076C198.79 202.527 199.164 202.101 199.642 201.797C200.124 201.494 200.684 201.342 201.321 201.342C201.959 201.342 202.518 201.494 202.996 201.797C203.477 202.101 203.852 202.527 204.118 203.076C204.388 203.625 204.523 204.268 204.523 205.004C204.523 205.734 204.388 206.372 204.118 206.917C203.852 207.463 203.477 207.888 202.996 208.192C202.518 208.495 201.959 208.647 201.321 208.647ZM201.321 207.672C201.806 207.672 202.205 207.548 202.518 207.299C202.83 207.051 203.062 206.724 203.212 206.319C203.362 205.915 203.438 205.476 203.438 205.004C203.438 204.531 203.362 204.091 203.212 203.683C203.062 203.276 202.83 202.946 202.518 202.694C202.205 202.443 201.806 202.317 201.321 202.317C200.837 202.317 200.438 202.443 200.125 202.694C199.813 202.946 199.581 203.276 199.431 203.683C199.28 204.091 199.205 204.531 199.205 205.004C199.205 205.476 199.28 205.915 199.431 206.319C199.581 206.724 199.813 207.051 200.125 207.299C200.438 207.548 200.837 207.672 201.321 207.672ZM207.266 204.249V208.5H206.181V201.434H207.229V202.538H207.321C207.487 202.179 207.739 201.891 208.076 201.673C208.413 201.452 208.849 201.342 209.382 201.342C209.861 201.342 210.279 201.44 210.638 201.636C210.997 201.83 211.276 202.124 211.476 202.52C211.675 202.912 211.775 203.409 211.775 204.01V208.5H210.689V204.084C210.689 203.529 210.545 203.096 210.256 202.786C209.968 202.474 209.573 202.317 209.07 202.317C208.723 202.317 208.413 202.392 208.14 202.543C207.87 202.693 207.657 202.912 207.501 203.2C207.344 203.489 207.266 203.838 207.266 204.249ZM215.175 205.85V205.795C215.181 205.209 215.243 204.743 215.359 204.397C215.476 204.05 215.642 203.769 215.856 203.555C216.071 203.34 216.328 203.142 216.629 202.961C216.81 202.851 216.973 202.72 217.117 202.57C217.261 202.417 217.374 202.24 217.457 202.041C217.543 201.842 217.586 201.621 217.586 201.379C217.586 201.078 217.515 200.817 217.374 200.597C217.233 200.376 217.045 200.206 216.808 200.086C216.572 199.966 216.31 199.907 216.022 199.907C215.77 199.907 215.528 199.959 215.295 200.063C215.062 200.167 214.867 200.331 214.711 200.555C214.554 200.779 214.464 201.072 214.439 201.434H213.28C213.305 200.913 213.439 200.466 213.685 200.095C213.933 199.724 214.26 199.44 214.665 199.244C215.073 199.048 215.525 198.95 216.022 198.95C216.562 198.95 217.031 199.057 217.43 199.272C217.831 199.486 218.141 199.781 218.359 200.155C218.58 200.529 218.69 200.955 218.69 201.434C218.69 201.771 218.638 202.076 218.534 202.349C218.432 202.622 218.285 202.866 218.092 203.081C217.902 203.295 217.672 203.486 217.402 203.651C217.132 203.82 216.916 203.998 216.753 204.185C216.591 204.369 216.473 204.588 216.399 204.843C216.325 205.097 216.286 205.415 216.279 205.795V205.85H215.175ZM215.764 208.574C215.537 208.574 215.342 208.492 215.18 208.33C215.017 208.167 214.936 207.972 214.936 207.746C214.936 207.519 215.017 207.324 215.18 207.161C215.342 206.999 215.537 206.917 215.764 206.917C215.991 206.917 216.186 206.999 216.348 207.161C216.511 207.324 216.592 207.519 216.592 207.746C216.592 207.896 216.554 208.034 216.477 208.16C216.404 208.285 216.304 208.387 216.178 208.463C216.056 208.537 215.918 208.574 215.764 208.574Z" fill="#8A857D"/>
<path d="M71.3398 228.631C70.9388 228.631 70.5726 228.533 70.2411 228.337C69.9097 228.138 69.6445 227.873 69.4457 227.542C69.2501 227.21 69.1523 226.844 69.1523 226.443C69.1523 226.039 69.2501 225.673 69.4457 225.344C69.6445 225.013 69.9097 224.75 70.2411 224.554C70.5726 224.355 70.9388 224.256 71.3398 224.256C71.7442 224.256 72.1104 224.355 72.4386 224.554C72.77 224.75 73.0335 225.013 73.229 225.344C73.4279 225.673 73.5273 226.039 73.5273 226.443C73.5273 226.844 73.4279 227.21 73.229 227.542C73.0335 227.873 72.77 228.138 72.4386 228.337C72.1104 228.533 71.7442 228.631 71.3398 228.631ZM84.9222 230.5L82.1381 220.318H83.391L85.5188 228.611H85.6183L87.7859 220.318H89.1779L91.3455 228.611H91.445L93.5728 220.318H94.8256L92.0415 230.5H90.7688L88.5217 222.386H88.4421L86.195 230.5H84.9222ZM98.5941 230.659C97.9047 230.659 97.2998 230.495 96.7795 230.167C96.2624 229.839 95.8581 229.38 95.5664 228.79C95.2781 228.2 95.1339 227.51 95.1339 226.722C95.1339 225.926 95.2781 225.232 95.5664 224.638C95.8581 224.045 96.2624 223.585 96.7795 223.256C97.2998 222.928 97.9047 222.764 98.5941 222.764C99.2835 222.764 99.8867 222.928 100.404 223.256C100.924 223.585 101.328 224.045 101.617 224.638C101.908 225.232 102.054 225.926 102.054 226.722C102.054 227.51 101.908 228.2 101.617 228.79C101.328 229.38 100.924 229.839 100.404 230.167C99.8867 230.495 99.2835 230.659 98.5941 230.659ZM98.5941 229.605C99.1178 229.605 99.5487 229.471 99.8867 229.202C100.225 228.934 100.475 228.581 100.637 228.143C100.8 227.706 100.881 227.232 100.881 226.722C100.881 226.211 100.8 225.736 100.637 225.295C100.475 224.854 100.225 224.498 99.8867 224.226C99.5487 223.954 99.1178 223.818 98.5941 223.818C98.0704 223.818 97.6396 223.954 97.3015 224.226C96.9634 224.498 96.7132 224.854 96.5508 225.295C96.3884 225.736 96.3072 226.211 96.3072 226.722C96.3072 227.232 96.3884 227.706 96.5508 228.143C96.7132 228.581 96.9634 228.934 97.3015 229.202C97.6396 229.471 98.0704 229.605 98.5941 229.605ZM103.845 230.5V222.864H104.979V224.017H105.058C105.198 223.639 105.45 223.333 105.814 223.097C106.179 222.862 106.59 222.744 107.047 222.744C107.133 222.744 107.241 222.746 107.37 222.749C107.499 222.753 107.597 222.758 107.664 222.764V223.957C107.624 223.947 107.533 223.933 107.39 223.913C107.251 223.889 107.103 223.878 106.948 223.878C106.576 223.878 106.245 223.956 105.953 224.112C105.665 224.264 105.436 224.476 105.267 224.748C105.102 225.016 105.019 225.323 105.019 225.668V230.5H103.845ZM110.148 227.716L110.128 226.264H110.367L113.708 222.864H115.159L111.6 226.463H111.5L110.148 227.716ZM109.054 230.5V220.318H110.228V230.5H109.054ZM113.907 230.5L110.924 226.722L111.759 225.906L115.398 230.5H113.907ZM119.557 230.659C118.821 230.659 118.186 230.497 117.653 230.172C117.122 229.844 116.713 229.386 116.425 228.8C116.14 228.21 115.997 227.524 115.997 226.741C115.997 225.959 116.14 225.27 116.425 224.673C116.713 224.073 117.114 223.606 117.628 223.271C118.145 222.933 118.748 222.764 119.438 222.764C119.835 222.764 120.228 222.83 120.616 222.963C121.004 223.096 121.357 223.311 121.675 223.609C121.993 223.904 122.246 224.295 122.435 224.783C122.624 225.27 122.719 225.87 122.719 226.582V227.08H116.832V226.065H121.526C121.526 225.634 121.439 225.25 121.267 224.912C121.098 224.574 120.856 224.307 120.541 224.112C120.23 223.916 119.862 223.818 119.438 223.818C118.97 223.818 118.566 223.934 118.224 224.166C117.886 224.395 117.626 224.693 117.444 225.061C117.262 225.429 117.17 225.823 117.17 226.244V226.92C117.17 227.497 117.27 227.986 117.469 228.387C117.671 228.785 117.951 229.088 118.309 229.297C118.667 229.502 119.083 229.605 119.557 229.605C119.865 229.605 120.143 229.562 120.392 229.476C120.644 229.386 120.861 229.254 121.043 229.078C121.226 228.899 121.366 228.677 121.466 228.412L122.599 228.73C122.48 229.115 122.28 229.453 121.998 229.744C121.716 230.033 121.368 230.258 120.954 230.42C120.54 230.58 120.074 230.659 119.557 230.659ZM127.387 230.659C126.751 230.659 126.189 230.498 125.702 230.177C125.214 229.852 124.833 229.395 124.558 228.805C124.283 228.211 124.146 227.51 124.146 226.702C124.146 225.9 124.283 225.204 124.558 224.614C124.833 224.024 125.216 223.568 125.707 223.246C126.197 222.925 126.764 222.764 127.407 222.764C127.904 222.764 128.297 222.847 128.585 223.013C128.877 223.175 129.099 223.361 129.251 223.57C129.407 223.775 129.528 223.944 129.614 224.077H129.714V220.318H130.887V230.5H129.754V229.327H129.614C129.528 229.466 129.406 229.642 129.246 229.854C129.087 230.062 128.86 230.25 128.565 230.415C128.27 230.578 127.878 230.659 127.387 230.659ZM127.546 229.605C128.017 229.605 128.415 229.482 128.739 229.237C129.064 228.989 129.311 228.646 129.48 228.208C129.649 227.767 129.734 227.259 129.734 226.682C129.734 226.112 129.651 225.613 129.485 225.185C129.319 224.754 129.074 224.42 128.749 224.181C128.424 223.939 128.023 223.818 127.546 223.818C127.049 223.818 126.635 223.946 126.303 224.201C125.975 224.453 125.728 224.796 125.562 225.23C125.4 225.661 125.319 226.145 125.319 226.682C125.319 227.225 125.402 227.719 125.567 228.163C125.737 228.604 125.985 228.955 126.313 229.217C126.645 229.476 127.056 229.605 127.546 229.605ZM140.239 230.659C139.549 230.659 138.944 230.495 138.424 230.167C137.907 229.839 137.503 229.38 137.211 228.79C136.923 228.2 136.778 227.51 136.778 226.722C136.778 225.926 136.923 225.232 137.211 224.638C137.503 224.045 137.907 223.585 138.424 223.256C138.944 222.928 139.549 222.764 140.239 222.764C140.928 222.764 141.531 222.928 142.048 223.256C142.569 223.585 142.973 224.045 143.261 224.638C143.553 225.232 143.699 225.926 143.699 226.722C143.699 227.51 143.553 228.2 143.261 228.79C142.973 229.38 142.569 229.839 142.048 230.167C141.531 230.495 140.928 230.659 140.239 230.659ZM140.239 229.605C140.762 229.605 141.193 229.471 141.531 229.202C141.869 228.934 142.12 228.581 142.282 228.143C142.444 227.706 142.526 227.232 142.526 226.722C142.526 226.211 142.444 225.736 142.282 225.295C142.12 224.854 141.869 224.498 141.531 224.226C141.193 223.954 140.762 223.818 140.239 223.818C139.715 223.818 139.284 223.954 138.946 224.226C138.608 224.498 138.358 224.854 138.195 225.295C138.033 225.736 137.952 226.211 137.952 226.722C137.952 227.232 138.033 227.706 138.195 228.143C138.358 228.581 138.608 228.934 138.946 229.202C139.284 229.471 139.715 229.605 140.239 229.605ZM146.663 225.906V230.5H145.49V222.864H146.623V224.057H146.723C146.902 223.669 147.174 223.357 147.538 223.122C147.903 222.884 148.373 222.764 148.95 222.764C149.467 222.764 149.92 222.87 150.307 223.082C150.695 223.291 150.997 223.609 151.212 224.037C151.428 224.461 151.535 224.998 151.535 225.648V230.5H150.362V225.727C150.362 225.127 150.206 224.66 149.895 224.325C149.583 223.987 149.156 223.818 148.612 223.818C148.238 223.818 147.903 223.899 147.608 224.062C147.316 224.224 147.086 224.461 146.917 224.773C146.748 225.084 146.663 225.462 146.663 225.906ZM158.79 220.318V230.5H157.617V220.318H158.79ZM164.041 230.659C163.352 230.659 162.747 230.495 162.227 230.167C161.71 229.839 161.305 229.38 161.014 228.79C160.725 228.2 160.581 227.51 160.581 226.722C160.581 225.926 160.725 225.232 161.014 224.638C161.305 224.045 161.71 223.585 162.227 223.256C162.747 222.928 163.352 222.764 164.041 222.764C164.731 222.764 165.334 222.928 165.851 223.256C166.371 223.585 166.776 224.045 167.064 224.638C167.356 225.232 167.502 225.926 167.502 226.722C167.502 227.51 167.356 228.2 167.064 228.79C166.776 229.38 166.371 229.839 165.851 230.167C165.334 230.495 164.731 230.659 164.041 230.659ZM164.041 229.605C164.565 229.605 164.996 229.471 165.334 229.202C165.672 228.934 165.922 228.581 166.085 228.143C166.247 227.706 166.328 227.232 166.328 226.722C166.328 226.211 166.247 225.736 166.085 225.295C165.922 224.854 165.672 224.498 165.334 224.226C164.996 223.954 164.565 223.818 164.041 223.818C163.518 223.818 163.087 223.954 162.749 224.226C162.411 224.498 162.16 224.854 161.998 225.295C161.836 225.736 161.754 226.211 161.754 226.722C161.754 227.232 161.836 227.706 161.998 228.143C162.16 228.581 162.411 228.934 162.749 229.202C163.087 229.471 163.518 229.605 164.041 229.605ZM172.375 233.523C171.808 233.523 171.321 233.45 170.913 233.304C170.506 233.161 170.166 232.973 169.894 232.737C169.626 232.505 169.412 232.257 169.253 231.991L170.188 231.335C170.294 231.474 170.428 231.634 170.59 231.812C170.753 231.995 170.975 232.152 171.256 232.285C171.541 232.421 171.914 232.489 172.375 232.489C172.991 232.489 173.5 232.339 173.901 232.041C174.302 231.743 174.503 231.276 174.503 230.639V229.088H174.403C174.317 229.227 174.195 229.4 174.036 229.605C173.88 229.807 173.654 229.988 173.359 230.147C173.068 230.303 172.673 230.381 172.176 230.381C171.56 230.381 171.006 230.235 170.516 229.943C170.028 229.652 169.642 229.227 169.357 228.67C169.076 228.114 168.935 227.437 168.935 226.642C168.935 225.86 169.072 225.179 169.347 224.599C169.622 224.015 170.005 223.565 170.496 223.246C170.986 222.925 171.553 222.764 172.196 222.764C172.693 222.764 173.088 222.847 173.379 223.013C173.674 223.175 173.9 223.361 174.055 223.57C174.214 223.775 174.337 223.944 174.423 224.077H174.543V222.864H175.676V230.719C175.676 231.375 175.527 231.909 175.229 232.32C174.934 232.734 174.536 233.037 174.036 233.229C173.538 233.425 172.985 233.523 172.375 233.523ZM172.335 229.327C172.806 229.327 173.204 229.219 173.528 229.004C173.853 228.788 174.1 228.478 174.269 228.074C174.438 227.67 174.523 227.186 174.523 226.622C174.523 226.072 174.44 225.586 174.274 225.165C174.108 224.745 173.863 224.415 173.538 224.176C173.214 223.937 172.813 223.818 172.335 223.818C171.838 223.818 171.424 223.944 171.092 224.196C170.764 224.448 170.517 224.786 170.352 225.21C170.189 225.634 170.108 226.105 170.108 226.622C170.108 227.152 170.191 227.621 170.357 228.029C170.526 228.433 170.774 228.752 171.102 228.984C171.434 229.212 171.845 229.327 172.335 229.327ZM177.824 230.5V222.864H178.997V230.5H177.824ZM178.42 221.591C178.192 221.591 177.995 221.513 177.829 221.357C177.666 221.201 177.585 221.014 177.585 220.795C177.585 220.577 177.666 220.389 177.829 220.234C177.995 220.078 178.192 220 178.42 220C178.649 220 178.845 220.078 179.007 220.234C179.173 220.389 179.256 220.577 179.256 220.795C179.256 221.014 179.173 221.201 179.007 221.357C178.845 221.513 178.649 221.591 178.42 221.591ZM182.319 225.906V230.5H181.146V222.864H182.28V224.057H182.379C182.558 223.669 182.83 223.357 183.194 223.122C183.559 222.884 184.03 222.764 184.606 222.764C185.123 222.764 185.576 222.87 185.964 223.082C186.351 223.291 186.653 223.609 186.868 224.037C187.084 224.461 187.192 224.998 187.192 225.648V230.5H186.018V225.727C186.018 225.127 185.863 224.66 185.551 224.325C185.239 223.987 184.812 223.818 184.268 223.818C183.894 223.818 183.559 223.899 183.264 224.062C182.972 224.224 182.742 224.461 182.573 224.773C182.404 225.084 182.319 225.462 182.319 225.906ZM193.273 233.364V222.864H194.407V224.077H194.546C194.632 223.944 194.751 223.775 194.904 223.57C195.06 223.361 195.282 223.175 195.57 223.013C195.862 222.847 196.256 222.764 196.753 222.764C197.396 222.764 197.963 222.925 198.453 223.246C198.944 223.568 199.327 224.024 199.602 224.614C199.877 225.204 200.015 225.9 200.015 226.702C200.015 227.51 199.877 228.211 199.602 228.805C199.327 229.395 198.946 229.852 198.458 230.177C197.971 230.498 197.409 230.659 196.773 230.659C196.283 230.659 195.89 230.578 195.595 230.415C195.3 230.25 195.073 230.062 194.914 229.854C194.755 229.642 194.632 229.466 194.546 229.327H194.446V233.364H193.273ZM194.426 226.682C194.426 227.259 194.511 227.767 194.68 228.208C194.849 228.646 195.096 228.989 195.421 229.237C195.746 229.482 196.143 229.605 196.614 229.605C197.105 229.605 197.514 229.476 197.842 229.217C198.173 228.955 198.422 228.604 198.588 228.163C198.757 227.719 198.841 227.225 198.841 226.682C198.841 226.145 198.758 225.661 198.593 225.23C198.43 224.796 198.183 224.453 197.852 224.201C197.524 223.946 197.111 223.818 196.614 223.818C196.137 223.818 195.736 223.939 195.411 224.181C195.086 224.42 194.841 224.754 194.675 225.185C194.509 225.613 194.426 226.112 194.426 226.682ZM204.051 230.679C203.568 230.679 203.128 230.588 202.734 230.406C202.34 230.22 202.026 229.953 201.794 229.605C201.562 229.254 201.446 228.83 201.446 228.332C201.446 227.895 201.533 227.54 201.705 227.268C201.877 226.993 202.108 226.778 202.396 226.622C202.684 226.466 203.002 226.35 203.35 226.274C203.702 226.195 204.055 226.132 204.409 226.085C204.873 226.026 205.25 225.981 205.538 225.951C205.83 225.918 206.042 225.863 206.174 225.787C206.31 225.711 206.378 225.578 206.378 225.389V225.349C206.378 224.859 206.244 224.478 205.975 224.206C205.71 223.934 205.308 223.798 204.767 223.798C204.207 223.798 203.768 223.921 203.45 224.166C203.132 224.411 202.908 224.673 202.779 224.952L201.665 224.554C201.864 224.09 202.129 223.729 202.461 223.47C202.795 223.208 203.16 223.026 203.554 222.923C203.952 222.817 204.343 222.764 204.728 222.764C204.973 222.764 205.255 222.794 205.573 222.854C205.894 222.91 206.204 223.028 206.502 223.207C206.804 223.386 207.054 223.656 207.253 224.017C207.452 224.378 207.551 224.862 207.551 225.469V230.5H206.378V229.466H206.319C206.239 229.632 206.106 229.809 205.921 229.998C205.735 230.187 205.488 230.348 205.18 230.48C204.872 230.613 204.496 230.679 204.051 230.679ZM204.23 229.625C204.694 229.625 205.086 229.534 205.404 229.352C205.725 229.169 205.967 228.934 206.13 228.646C206.295 228.357 206.378 228.054 206.378 227.736V226.662C206.328 226.722 206.219 226.776 206.05 226.826C205.884 226.872 205.692 226.914 205.473 226.95C205.258 226.983 205.047 227.013 204.842 227.04C204.64 227.063 204.476 227.083 204.35 227.099C204.045 227.139 203.76 227.204 203.495 227.293C203.233 227.379 203.021 227.51 202.858 227.686C202.699 227.858 202.62 228.094 202.62 228.392C202.62 228.8 202.77 229.108 203.072 229.317C203.377 229.522 203.763 229.625 204.23 229.625ZM212.775 233.523C212.209 233.523 211.721 233.45 211.314 233.304C210.906 233.161 210.566 232.973 210.295 232.737C210.026 232.505 209.812 232.257 209.653 231.991L210.588 231.335C210.694 231.474 210.828 231.634 210.991 231.812C211.153 231.995 211.375 232.152 211.657 232.285C211.942 232.421 212.315 232.489 212.775 232.489C213.392 232.489 213.901 232.339 214.302 232.041C214.703 231.743 214.903 231.276 214.903 230.639V229.088H214.804C214.718 229.227 214.595 229.4 214.436 229.605C214.28 229.807 214.055 229.988 213.76 230.147C213.468 230.303 213.074 230.381 212.577 230.381C211.96 230.381 211.407 230.235 210.916 229.943C210.429 229.652 210.043 229.227 209.758 228.67C209.476 228.114 209.335 227.437 209.335 226.642C209.335 225.86 209.473 225.179 209.748 224.599C210.023 224.015 210.406 223.565 210.896 223.246C211.387 222.925 211.953 222.764 212.596 222.764C213.094 222.764 213.488 222.847 213.78 223.013C214.075 223.175 214.3 223.361 214.456 223.57C214.615 223.775 214.738 223.944 214.824 224.077H214.943V222.864H216.077V230.719C216.077 231.375 215.927 231.909 215.629 232.32C215.334 232.734 214.936 233.037 214.436 233.229C213.939 233.425 213.385 233.523 212.775 233.523ZM212.736 229.327C213.206 229.327 213.604 229.219 213.929 229.004C214.254 228.788 214.501 228.478 214.67 228.074C214.839 227.67 214.923 227.186 214.923 226.622C214.923 226.072 214.84 225.586 214.675 225.165C214.509 224.745 214.264 224.415 213.939 224.176C213.614 223.937 213.213 223.818 212.736 223.818C212.238 223.818 211.824 223.944 211.493 224.196C211.165 224.448 210.918 224.786 210.752 225.21C210.59 225.634 210.508 226.105 210.508 226.622C210.508 227.152 210.591 227.621 210.757 228.029C210.926 228.433 211.175 228.752 211.503 228.984C211.834 229.212 212.245 229.327 212.736 229.327ZM221.426 230.659C220.69 230.659 220.055 230.497 219.522 230.172C218.992 229.844 218.582 229.386 218.294 228.8C218.009 228.21 217.866 227.524 217.866 226.741C217.866 225.959 218.009 225.27 218.294 224.673C218.582 224.073 218.983 223.606 219.497 223.271C220.014 222.933 220.617 222.764 221.307 222.764C221.704 222.764 222.097 222.83 222.485 222.963C222.873 223.096 223.226 223.311 223.544 223.609C223.862 223.904 224.116 224.295 224.305 224.783C224.493 225.27 224.588 225.87 224.588 226.582V227.08H218.702V226.065H223.395C223.395 225.634 223.309 225.25 223.136 224.912C222.967 224.574 222.725 224.307 222.41 224.112C222.099 223.916 221.731 223.818 221.307 223.818C220.839 223.818 220.435 223.934 220.094 224.166C219.756 224.395 219.495 224.693 219.313 225.061C219.131 225.429 219.04 225.823 219.04 226.244V226.92C219.04 227.497 219.139 227.986 219.338 228.387C219.54 228.785 219.82 229.088 220.178 229.297C220.536 229.502 220.952 229.605 221.426 229.605C221.734 229.605 222.013 229.562 222.261 229.476C222.513 229.386 222.73 229.254 222.912 229.078C223.095 228.899 223.236 228.677 223.335 228.412L224.469 228.73C224.349 229.115 224.149 229.453 223.867 229.744C223.585 230.033 223.237 230.258 222.823 230.42C222.409 230.58 221.943 230.659 221.426 230.659ZM231.782 224.574L230.728 224.872C230.662 224.696 230.564 224.526 230.434 224.36C230.309 224.191 230.136 224.052 229.917 223.942C229.699 223.833 229.419 223.778 229.077 223.778C228.61 223.778 228.22 223.886 227.909 224.102C227.601 224.314 227.447 224.584 227.447 224.912C227.447 225.204 227.553 225.434 227.765 225.603C227.977 225.772 228.308 225.913 228.759 226.026L229.893 226.304C230.575 226.47 231.084 226.723 231.419 227.065C231.754 227.403 231.921 227.839 231.921 228.372C231.921 228.81 231.795 229.201 231.543 229.545C231.295 229.89 230.947 230.162 230.499 230.361C230.052 230.56 229.531 230.659 228.938 230.659C228.159 230.659 227.515 230.49 227.004 230.152C226.494 229.814 226.171 229.32 226.035 228.67L227.148 228.392C227.254 228.803 227.455 229.111 227.75 229.317C228.048 229.522 228.438 229.625 228.918 229.625C229.465 229.625 229.899 229.509 230.221 229.277C230.546 229.042 230.708 228.76 230.708 228.432C230.708 228.167 230.615 227.945 230.43 227.766C230.244 227.583 229.959 227.447 229.574 227.358L228.302 227.06C227.602 226.894 227.089 226.637 226.76 226.289C226.436 225.938 226.273 225.499 226.273 224.972C226.273 224.541 226.394 224.16 226.636 223.828C226.881 223.497 227.215 223.237 227.635 223.048C228.06 222.859 228.54 222.764 229.077 222.764C229.833 222.764 230.426 222.93 230.857 223.261C231.291 223.593 231.599 224.03 231.782 224.574ZM71.3398 250.631C70.9388 250.631 70.5726 250.533 70.2411 250.337C69.9097 250.138 69.6445 249.873 69.4457 249.542C69.2501 249.21 69.1523 248.844 69.1523 248.443C69.1523 248.039 69.2501 247.673 69.4457 247.344C69.6445 247.013 69.9097 246.75 70.2411 246.554C70.5726 246.355 70.9388 246.256 71.3398 246.256C71.7442 246.256 72.1104 246.355 72.4386 246.554C72.77 246.75 73.0335 247.013 73.229 247.344C73.4279 247.673 73.5273 248.039 73.5273 248.443C73.5273 248.844 73.4279 249.21 73.229 249.542C73.0335 249.873 72.77 250.138 72.4386 250.337C72.1104 250.533 71.7442 250.631 71.3398 250.631ZM83.0728 252.5V242.318H84.3058V251.406H89.0387V252.5H83.0728ZM93.0359 252.679C92.552 252.679 92.1128 252.588 91.7184 252.406C91.324 252.22 91.0108 251.953 90.7788 251.605C90.5468 251.254 90.4308 250.83 90.4308 250.332C90.4308 249.895 90.5169 249.54 90.6893 249.268C90.8616 248.993 91.092 248.778 91.3803 248.622C91.6687 248.466 91.9869 248.35 92.3349 248.274C92.6862 248.195 93.0392 248.132 93.3938 248.085C93.8578 248.026 94.234 247.981 94.5224 247.951C94.814 247.918 95.0262 247.863 95.1587 247.787C95.2946 247.711 95.3626 247.578 95.3626 247.389V247.349C95.3626 246.859 95.2283 246.478 94.9599 246.206C94.6947 245.934 94.292 245.798 93.7518 245.798C93.1916 245.798 92.7525 245.921 92.4343 246.166C92.1161 246.411 91.8924 246.673 91.7631 246.952L90.6495 246.554C90.8484 246.09 91.1135 245.729 91.445 245.47C91.7797 245.208 92.1443 245.026 92.5387 244.923C92.9364 244.817 93.3275 244.764 93.712 244.764C93.9573 244.764 94.239 244.794 94.5572 244.854C94.8787 244.91 95.1886 245.028 95.4869 245.207C95.7885 245.386 96.0387 245.656 96.2376 246.017C96.4364 246.378 96.5359 246.862 96.5359 247.469V252.5H95.3626V251.466H95.3029C95.2234 251.632 95.0908 251.809 94.9052 251.998C94.7196 252.187 94.4727 252.348 94.1644 252.48C93.8562 252.613 93.48 252.679 93.0359 252.679ZM93.2148 251.625C93.6789 251.625 94.07 251.534 94.3881 251.352C94.7096 251.169 94.9516 250.934 95.114 250.646C95.2797 250.357 95.3626 250.054 95.3626 249.736V248.662C95.3129 248.722 95.2035 248.776 95.0344 248.826C94.8687 248.872 94.6765 248.914 94.4577 248.95C94.2423 248.983 94.0318 249.013 93.8263 249.04C93.6242 249.063 93.4601 249.083 93.3342 249.099C93.0292 249.139 92.7442 249.204 92.479 249.293C92.2172 249.379 92.0051 249.51 91.8427 249.686C91.6836 249.858 91.604 250.094 91.604 250.392C91.604 250.8 91.7549 251.108 92.0565 251.317C92.3614 251.522 92.7475 251.625 93.2148 251.625ZM99.8507 247.906V252.5H98.6774V244.864H99.8109V246.057H99.9103C100.089 245.669 100.361 245.357 100.726 245.122C101.09 244.884 101.561 244.764 102.138 244.764C102.655 244.764 103.107 244.87 103.495 245.082C103.883 245.291 104.184 245.609 104.4 246.037C104.615 246.461 104.723 246.998 104.723 247.648V252.5H103.55V247.727C103.55 247.127 103.394 246.66 103.082 246.325C102.771 245.987 102.343 245.818 101.8 245.818C101.425 245.818 101.09 245.899 100.795 246.062C100.504 246.224 100.273 246.461 100.104 246.773C99.9352 247.084 99.8507 247.462 99.8507 247.906ZM109.75 252.659C109.114 252.659 108.552 252.498 108.065 252.177C107.578 251.852 107.197 251.395 106.922 250.805C106.646 250.211 106.509 249.51 106.509 248.702C106.509 247.9 106.646 247.204 106.922 246.614C107.197 246.024 107.579 245.568 108.07 245.246C108.56 244.925 109.127 244.764 109.77 244.764C110.267 244.764 110.66 244.847 110.949 245.013C111.24 245.175 111.462 245.361 111.615 245.57C111.77 245.775 111.891 245.944 111.978 246.077H112.077V242.318H113.25V252.5H112.117V251.327H111.978C111.891 251.466 111.769 251.642 111.61 251.854C111.451 252.062 111.224 252.25 110.929 252.415C110.634 252.578 110.241 252.659 109.75 252.659ZM109.909 251.605C110.38 251.605 110.778 251.482 111.103 251.237C111.427 250.989 111.674 250.646 111.843 250.208C112.012 249.767 112.097 249.259 112.097 248.682C112.097 248.112 112.014 247.613 111.848 247.185C111.683 246.754 111.437 246.42 111.113 246.181C110.788 245.939 110.387 245.818 109.909 245.818C109.412 245.818 108.998 245.946 108.667 246.201C108.338 246.453 108.092 246.796 107.926 247.23C107.763 247.661 107.682 248.145 107.682 248.682C107.682 249.225 107.765 249.719 107.931 250.163C108.1 250.604 108.348 250.955 108.676 251.217C109.008 251.476 109.419 251.605 109.909 251.605ZM115.562 252.5V244.864H116.735V252.5H115.562ZM116.159 243.591C115.93 243.591 115.733 243.513 115.567 243.357C115.405 243.201 115.324 243.014 115.324 242.795C115.324 242.577 115.405 242.389 115.567 242.234C115.733 242.078 115.93 242 116.159 242C116.387 242 116.583 242.078 116.745 242.234C116.911 242.389 116.994 242.577 116.994 242.795C116.994 243.014 116.911 243.201 116.745 243.357C116.583 243.513 116.387 243.591 116.159 243.591ZM120.058 247.906V252.5H118.884V244.864H120.018V246.057H120.117C120.296 245.669 120.568 245.357 120.933 245.122C121.297 244.884 121.768 244.764 122.345 244.764C122.862 244.764 123.314 244.87 123.702 245.082C124.09 245.291 124.391 245.609 124.607 246.037C124.822 246.461 124.93 246.998 124.93 247.648V252.5H123.757V247.727C123.757 247.127 123.601 246.66 123.289 246.325C122.978 245.987 122.55 245.818 122.007 245.818C121.632 245.818 121.297 245.899 121.002 246.062C120.711 246.224 120.48 246.461 120.311 246.773C120.142 247.084 120.058 247.462 120.058 247.906ZM130.156 255.523C129.589 255.523 129.102 255.45 128.695 255.304C128.287 255.161 127.947 254.973 127.675 254.737C127.407 254.505 127.193 254.257 127.034 253.991L127.969 253.335C128.075 253.474 128.209 253.634 128.371 253.812C128.534 253.995 128.756 254.152 129.038 254.285C129.323 254.421 129.696 254.489 130.156 254.489C130.773 254.489 131.281 254.339 131.683 254.041C132.084 253.743 132.284 253.276 132.284 252.639V251.088H132.185C132.098 251.227 131.976 251.4 131.817 251.605C131.661 251.807 131.436 251.988 131.141 252.147C130.849 252.303 130.455 252.381 129.957 252.381C129.341 252.381 128.787 252.235 128.297 251.943C127.81 251.652 127.424 251.227 127.138 250.67C126.857 250.114 126.716 249.437 126.716 248.642C126.716 247.86 126.853 247.179 127.129 246.599C127.404 246.015 127.786 245.565 128.277 245.246C128.768 244.925 129.334 244.764 129.977 244.764C130.474 244.764 130.869 244.847 131.161 245.013C131.455 245.175 131.681 245.361 131.837 245.57C131.996 245.775 132.118 245.944 132.205 246.077H132.324V244.864H133.457V252.719C133.457 253.375 133.308 253.909 133.01 254.32C132.715 254.734 132.317 255.037 131.817 255.229C131.32 255.425 130.766 255.523 130.156 255.523ZM130.116 251.327C130.587 251.327 130.985 251.219 131.31 251.004C131.634 250.788 131.881 250.478 132.05 250.074C132.219 249.67 132.304 249.186 132.304 248.622C132.304 248.072 132.221 247.586 132.055 247.165C131.89 246.745 131.644 246.415 131.32 246.176C130.995 245.937 130.594 245.818 130.116 245.818C129.619 245.818 129.205 245.944 128.874 246.196C128.545 246.448 128.299 246.786 128.133 247.21C127.97 247.634 127.889 248.105 127.889 248.622C127.889 249.152 127.972 249.621 128.138 250.029C128.307 250.433 128.555 250.752 128.884 250.984C129.215 251.212 129.626 251.327 130.116 251.327ZM139.543 255.364V244.864H140.676V246.077H140.815C140.902 245.944 141.021 245.775 141.173 245.57C141.329 245.361 141.551 245.175 141.839 245.013C142.131 244.847 142.526 244.764 143.023 244.764C143.666 244.764 144.232 244.925 144.723 245.246C145.214 245.568 145.596 246.024 145.871 246.614C146.147 247.204 146.284 247.9 146.284 248.702C146.284 249.51 146.147 250.211 145.871 250.805C145.596 251.395 145.215 251.852 144.728 252.177C144.241 252.498 143.679 252.659 143.043 252.659C142.552 252.659 142.159 252.578 141.864 252.415C141.569 252.25 141.342 252.062 141.183 251.854C141.024 251.642 140.902 251.466 140.815 251.327H140.716V255.364H139.543ZM140.696 248.682C140.696 249.259 140.781 249.767 140.95 250.208C141.119 250.646 141.366 250.989 141.69 251.237C142.015 251.482 142.413 251.605 142.884 251.605C143.374 251.605 143.783 251.476 144.112 251.217C144.443 250.955 144.692 250.604 144.857 250.163C145.026 249.719 145.111 249.225 145.111 248.682C145.111 248.145 145.028 247.661 144.862 247.23C144.7 246.796 144.453 246.453 144.121 246.201C143.793 245.946 143.381 245.818 142.884 245.818C142.406 245.818 142.005 245.939 141.68 246.181C141.356 246.42 141.11 246.754 140.945 247.185C140.779 247.613 140.696 248.112 140.696 248.682ZM150.321 252.679C149.837 252.679 149.398 252.588 149.004 252.406C148.609 252.22 148.296 251.953 148.064 251.605C147.832 251.254 147.716 250.83 147.716 250.332C147.716 249.895 147.802 249.54 147.974 249.268C148.147 248.993 148.377 248.778 148.665 248.622C148.954 248.466 149.272 248.35 149.62 248.274C149.971 248.195 150.324 248.132 150.679 248.085C151.143 248.026 151.519 247.981 151.808 247.951C152.099 247.918 152.311 247.863 152.444 247.787C152.58 247.711 152.648 247.578 152.648 247.389V247.349C152.648 246.859 152.513 246.478 152.245 246.206C151.98 245.934 151.577 245.798 151.037 245.798C150.477 245.798 150.038 245.921 149.719 246.166C149.401 246.411 149.178 246.673 149.048 246.952L147.935 246.554C148.134 246.09 148.399 245.729 148.73 245.47C149.065 245.208 149.429 245.026 149.824 244.923C150.222 244.817 150.613 244.764 150.997 244.764C151.242 244.764 151.524 244.794 151.842 244.854C152.164 244.91 152.474 245.028 152.772 245.207C153.074 245.386 153.324 245.656 153.523 246.017C153.722 246.378 153.821 246.862 153.821 247.469V252.5H152.648V251.466H152.588C152.509 251.632 152.376 251.809 152.19 251.998C152.005 252.187 151.758 252.348 151.45 252.48C151.141 252.613 150.765 252.679 150.321 252.679ZM150.5 251.625C150.964 251.625 151.355 251.534 151.673 251.352C151.995 251.169 152.237 250.934 152.399 250.646C152.565 250.357 152.648 250.054 152.648 249.736V248.662C152.598 248.722 152.489 248.776 152.32 248.826C152.154 248.872 151.962 248.914 151.743 248.95C151.527 248.983 151.317 249.013 151.112 249.04C150.909 249.063 150.745 249.083 150.619 249.099C150.314 249.139 150.029 249.204 149.764 249.293C149.502 249.379 149.29 249.51 149.128 249.686C148.969 249.858 148.889 250.094 148.889 250.392C148.889 250.8 149.04 251.108 149.342 251.317C149.647 251.522 150.033 251.625 150.5 251.625ZM159.045 255.523C158.478 255.523 157.991 255.45 157.583 255.304C157.176 255.161 156.836 254.973 156.564 254.737C156.296 254.505 156.082 254.257 155.923 253.991L156.857 253.335C156.963 253.474 157.098 253.634 157.26 253.812C157.423 253.995 157.645 254.152 157.926 254.285C158.211 254.421 158.584 254.489 159.045 254.489C159.661 254.489 160.17 254.339 160.571 254.041C160.972 253.743 161.173 253.276 161.173 252.639V251.088H161.073C160.987 251.227 160.865 251.4 160.705 251.605C160.55 251.807 160.324 251.988 160.029 252.147C159.738 252.303 159.343 252.381 158.846 252.381C158.23 252.381 157.676 252.235 157.186 251.943C156.698 251.652 156.312 251.227 156.027 250.67C155.745 250.114 155.605 249.437 155.605 248.642C155.605 247.86 155.742 247.179 156.017 246.599C156.292 246.015 156.675 245.565 157.166 245.246C157.656 244.925 158.223 244.764 158.866 244.764C159.363 244.764 159.758 244.847 160.049 245.013C160.344 245.175 160.57 245.361 160.725 245.57C160.884 245.775 161.007 245.944 161.093 246.077H161.213V244.864H162.346V252.719C162.346 253.375 162.197 253.909 161.899 254.32C161.604 254.734 161.206 255.037 160.705 255.229C160.208 255.425 159.655 255.523 159.045 255.523ZM159.005 251.327C159.476 251.327 159.874 251.219 160.198 251.004C160.523 250.788 160.77 250.478 160.939 250.074C161.108 249.67 161.193 249.186 161.193 248.622C161.193 248.072 161.11 247.586 160.944 247.165C160.778 246.745 160.533 246.415 160.208 246.176C159.883 245.937 159.482 245.818 159.005 245.818C158.508 245.818 158.094 245.944 157.762 246.196C157.434 246.448 157.187 246.786 157.021 247.21C156.859 247.634 156.778 248.105 156.778 248.622C156.778 249.152 156.861 249.621 157.026 250.029C157.195 250.433 157.444 250.752 157.772 250.984C158.104 251.212 158.515 251.327 159.005 251.327ZM167.695 252.659C166.96 252.659 166.325 252.497 165.791 252.172C165.261 251.844 164.852 251.386 164.563 250.8C164.278 250.21 164.136 249.524 164.136 248.741C164.136 247.959 164.278 247.27 164.563 246.673C164.852 246.073 165.253 245.606 165.767 245.271C166.284 244.933 166.887 244.764 167.576 244.764C167.974 244.764 168.367 244.83 168.754 244.963C169.142 245.096 169.495 245.311 169.813 245.609C170.132 245.904 170.385 246.295 170.574 246.783C170.763 247.27 170.857 247.87 170.857 248.582V249.08H164.971V248.065H169.664C169.664 247.634 169.578 247.25 169.406 246.912C169.237 246.574 168.995 246.307 168.68 246.112C168.368 245.916 168 245.818 167.576 245.818C167.109 245.818 166.704 245.934 166.363 246.166C166.025 246.395 165.765 246.693 165.583 247.061C165.4 247.429 165.309 247.823 165.309 248.244V248.92C165.309 249.497 165.409 249.986 165.607 250.387C165.81 250.785 166.09 251.088 166.448 251.297C166.806 251.502 167.222 251.605 167.695 251.605C168.004 251.605 168.282 251.562 168.531 251.476C168.783 251.386 169 251.254 169.182 251.078C169.364 250.899 169.505 250.677 169.605 250.412L170.738 250.73C170.619 251.115 170.418 251.453 170.137 251.744C169.855 252.033 169.507 252.258 169.093 252.42C168.678 252.58 168.213 252.659 167.695 252.659Z" fill="black"/>
<rect x="44.3239" y="175.324" width="259.352" height="100.352" rx="6.15341" stroke="#EBEAE8" stroke-width="0.647727"/>
<path d="M67.8645 322.26C66.7118 322.26 65.7299 321.946 64.9189 321.319C64.1078 320.686 63.4881 319.77 63.0596 318.572C62.6312 317.368 62.4169 315.914 62.4169 314.211C62.4169 312.517 62.6312 311.071 63.0596 309.873C63.4932 308.669 64.1155 307.751 64.9265 307.118C65.7426 306.481 66.722 306.162 67.8645 306.162C69.0071 306.162 69.9839 306.481 70.7949 307.118C71.611 307.751 72.2333 308.669 72.6618 309.873C73.0953 311.071 73.3121 312.517 73.3121 314.211C73.3121 315.914 73.0979 317.368 72.6694 318.572C72.2409 319.77 71.6212 320.686 70.8102 321.319C69.9992 321.946 69.0173 322.26 67.8645 322.26ZM67.8645 320.576C69.0071 320.576 69.8946 320.026 70.5271 318.924C71.1596 317.822 71.4758 316.251 71.4758 314.211C71.4758 312.854 71.3305 311.699 71.0397 310.745C70.7541 309.791 70.3409 309.064 69.8002 308.564C69.2647 308.064 68.6194 307.814 67.8645 307.814C66.7322 307.814 65.8472 308.373 65.2096 309.49C64.572 310.602 64.2532 312.176 64.2532 314.211C64.2532 315.567 64.396 316.72 64.6817 317.669C64.9673 318.618 65.3779 319.339 65.9135 319.834C66.4542 320.329 67.1045 320.576 67.8645 320.576ZM81.3304 322.26C80.1777 322.26 79.1958 321.946 78.3848 321.319C77.5737 320.686 76.954 319.77 76.5255 318.572C76.0971 317.368 75.8829 315.914 75.8829 314.211C75.8829 312.517 76.0971 311.071 76.5255 309.873C76.9591 308.669 77.5814 307.751 78.3924 307.118C79.2085 306.481 80.1879 306.162 81.3304 306.162C82.473 306.162 83.4498 306.481 84.2608 307.118C85.0769 307.751 85.6992 308.669 86.1277 309.873C86.5612 311.071 86.778 312.517 86.778 314.211C86.778 315.914 86.5638 317.368 86.1353 318.572C85.7069 319.77 85.0871 320.686 84.2761 321.319C83.4651 321.946 82.4832 322.26 81.3304 322.26ZM81.3304 320.576C82.473 320.576 83.3605 320.026 83.993 318.924C84.6255 317.822 84.9417 316.251 84.9417 314.211C84.9417 312.854 84.7964 311.699 84.5056 310.745C84.22 309.791 83.8068 309.064 83.2662 308.564C82.7306 308.064 82.0853 307.814 81.3304 307.814C80.1981 307.814 79.3131 308.373 78.6755 309.49C78.0379 310.602 77.7191 312.176 77.7191 314.211C77.7191 315.567 77.8619 316.72 78.1476 317.669C78.4332 318.618 78.8438 319.339 79.3794 319.834C79.9201 320.329 80.5704 320.576 81.3304 320.576ZM91.032 320.041C90.6546 320.041 90.3307 319.906 90.0603 319.635C89.79 319.365 89.6548 319.041 89.6548 318.664C89.6548 318.286 89.79 317.962 90.0603 317.692C90.3307 317.422 90.6546 317.286 91.032 317.286C91.4095 317.286 91.7334 317.422 92.0037 317.692C92.274 317.962 92.4092 318.286 92.4092 318.664C92.4092 318.914 92.3454 319.143 92.2179 319.352C92.0955 319.561 91.9297 319.73 91.7206 319.857C91.5166 319.98 91.287 320.041 91.032 320.041ZM91.032 312.114C90.6546 312.114 90.3307 311.979 90.0603 311.709C89.79 311.438 89.6548 311.115 89.6548 310.737C89.6548 310.36 89.79 310.036 90.0603 309.765C90.3307 309.495 90.6546 309.36 91.032 309.36C91.4095 309.36 91.7334 309.495 92.0037 309.765C92.274 310.036 92.4092 310.36 92.4092 310.737C92.4092 310.987 92.3454 311.217 92.2179 311.426C92.0955 311.635 91.9297 311.803 91.7206 311.931C91.5166 312.053 91.287 312.114 91.032 312.114ZM95.6188 322.045V320.668L100.791 315.006C101.398 314.343 101.898 313.767 102.291 313.277C102.683 312.782 102.974 312.318 103.163 311.885C103.357 311.446 103.454 310.987 103.454 310.508C103.454 309.957 103.321 309.48 103.056 309.077C102.796 308.674 102.438 308.363 101.985 308.143C101.531 307.924 101.02 307.814 100.454 307.814C99.8524 307.814 99.3271 307.939 98.8782 308.189C98.4344 308.434 98.0901 308.778 97.8453 309.222C97.6056 309.666 97.4857 310.186 97.4857 310.783H95.68C95.68 309.865 95.8917 309.059 96.3151 308.365C96.7384 307.672 97.3148 307.131 98.0442 306.743C98.7787 306.356 99.6025 306.162 100.516 306.162C101.434 306.162 102.247 306.356 102.956 306.743C103.665 307.131 104.221 307.654 104.624 308.312C105.027 308.97 105.229 309.702 105.229 310.508C105.229 311.084 105.124 311.648 104.915 312.198C104.711 312.744 104.354 313.354 103.844 314.027C103.339 314.695 102.637 315.511 101.74 316.475L98.2202 320.24V320.362H105.504V322.045H95.6188ZM113.775 322.26C112.622 322.26 111.64 321.946 110.829 321.319C110.018 320.686 109.398 319.77 108.97 318.572C108.542 317.368 108.327 315.914 108.327 314.211C108.327 312.517 108.542 311.071 108.97 309.873C109.404 308.669 110.026 307.751 110.837 307.118C111.653 306.481 112.632 306.162 113.775 306.162C114.917 306.162 115.894 306.481 116.705 307.118C117.521 307.751 118.144 308.669 118.572 309.873C119.006 311.071 119.222 312.517 119.222 314.211C119.222 315.914 119.008 317.368 118.58 318.572C118.151 319.77 117.532 320.686 116.721 321.319C115.91 321.946 114.928 322.26 113.775 322.26ZM113.775 320.576C114.917 320.576 115.805 320.026 116.437 318.924C117.07 317.822 117.386 316.251 117.386 314.211C117.386 312.854 117.241 311.699 116.95 310.745C116.664 309.791 116.251 309.064 115.711 308.564C115.175 308.064 114.53 307.814 113.775 307.814C112.642 307.814 111.758 308.373 111.12 309.49C110.482 310.602 110.164 312.176 110.164 314.211C110.164 315.567 110.306 316.72 110.592 317.669C110.878 318.618 111.288 319.339 111.824 319.834C112.365 320.329 113.015 320.576 113.775 320.576Z" fill="black"/>
<g clip-path="url(#clip0_2613_45675)">
<g clip-path="url(#clip1_2613_45675)">
<circle cx="174.859" cy="314.5" r="21.5" fill="#4A2CFE"/>
<path d="M170.383 320.891V309.005C170.383 308.66 170.756 308.444 171.055 308.617L181.356 314.56C181.655 314.732 181.655 315.163 181.356 315.336L171.055 321.279C170.756 321.451 170.383 321.236 170.383 320.891Z" fill="white"/>
<g clip-path="url(#clip2_2613_45675)">
<circle cx="174.859" cy="314.5" r="21.5" fill="#FFC01E"/>
<rect x="168.816" y="307.11" width="4.03125" height="14.7813" rx="2.01563" fill="white"/>
<rect x="176.879" y="307.11" width="4.03125" height="14.7813" rx="2.01563" fill="white"/>
</g>
</g>
</g>
<path d="M244.827 319.259H239.44C238.697 319.259 238.094 318.656 238.094 317.913V307.14C238.094 306.396 238.697 305.793 239.44 305.793H251.56C252.303 305.793 252.906 306.396 252.906 307.14V311.18" stroke="#8A857D" stroke-width="1.34659" stroke-linecap="round" stroke-linejoin="round"/>
<path d="M238.094 309.833H252.906" stroke="#8A857D" stroke-width="1.34659" stroke-linecap="round" stroke-linejoin="round"/>
<path d="M242.133 307.14V304.447" stroke="#8A857D" stroke-width="1.34659" stroke-linecap="round" stroke-linejoin="round"/>
<path d="M248.867 307.14V304.447" stroke="#8A857D" stroke-width="1.34659" stroke-linecap="round" stroke-linejoin="round"/>
<path fill-rule="evenodd" clip-rule="evenodd" d="M252.906 324.646C255.881 324.646 258.292 322.234 258.292 319.259C258.292 316.285 255.881 313.873 252.906 313.873C249.931 313.873 247.52 316.285 247.52 319.259C247.52 322.234 249.931 324.646 252.906 324.646Z" stroke="#8A857D" stroke-width="1.34659" stroke-linecap="round" stroke-linejoin="round"/>
<path d="M255.287 319.259H252.906V316.879" stroke="#8A857D" stroke-width="1.34659" stroke-linecap="round" stroke-linejoin="round"/>
<rect x="92.8369" y="160.837" width="23.434" height="29.0135" rx="10.3221" fill="white" stroke="black" stroke-width="1.67386"/>
<path d="M99.8904 180.086C99.6114 182.504 99.8904 187.73 103.238 189.292" stroke="black" stroke-width="1.67386" stroke-linecap="round"/>
<path d="M106.586 179.528C106.307 181.946 106.586 187.172 109.933 188.735" stroke="black" stroke-width="1.67386" stroke-linecap="round"/>
<rect x="230.095" y="160.837" width="23.434" height="29.0135" rx="10.3221" fill="white" stroke="black" stroke-width="1.67386"/>
<path d="M247.114 180.086C247.393 182.504 247.114 187.73 243.766 189.292" stroke="black" stroke-width="1.67386" stroke-linecap="round"/>
<path d="M240.418 179.528C240.697 181.946 240.418 187.172 237.071 188.735" stroke="black" stroke-width="1.67386" stroke-linecap="round"/>
<defs>
<filter id="filter0_d_2613_45675" x="24.7614" y="38.0568" width="298.477" height="319.477" filterUnits="userSpaceOnUse" color-interpolation-filters="sRGB">
<feFlood flood-opacity="0" result="BackgroundImageFix"/>
<feColorMatrix in="SourceAlpha" type="matrix" values="0 0 0 0 0 0 0 0 0 0 0 0 0 0 0 0 0 0 127 0" result="hardAlpha"/>
<feOffset dy="1.29545"/>
<feGaussianBlur stdDeviation="1.61932"/>
<feColorMatrix type="matrix" values="0 0 0 0 0.541176 0 0 0 0 0.521569 0 0 0 0 0.490196 0 0 0 0.2 0"/>
<feBlend mode="normal" in2="BackgroundImageFix" result="effect1_dropShadow_2613_45675"/>
<feBlend mode="normal" in="SourceGraphic" in2="effect1_dropShadow_2613_45675" result="shape"/>
</filter>
<clipPath id="clip0_2613_45675">
<rect width="43.0909" height="43.0909" fill="white" transform="translate(153.418 293)"/>
</clipPath>
<clipPath id="clip1_2613_45675">
<rect width="43" height="43" fill="white" transform="translate(153.359 293)"/>
</clipPath>
<clipPath id="clip2_2613_45675">
<rect width="43" height="43" fill="white" transform="translate(153.359 293)"/>
</clipPath>
</defs>
</svg>
