<svg width="758" height="631" viewBox="0 0 758 631" fill="none" xmlns="http://www.w3.org/2000/svg">
<g filter="url(#filter0_d_2848_56389)">
<rect x="150.788" y="74.678" width="434.769" height="298.038" rx="15.1631" transform="rotate(-4.41878 150.788 74.678)" fill="white"/>
</g>
<rect x="119.655" y="39.3531" width="494.098" height="307.099" rx="11.3488" transform="rotate(-4.21122 119.655 39.3531)" fill="#F9F9F9"/>
<rect x="201.794" y="60.056" width="154.56" height="19.0815" rx="9.54076" transform="rotate(-4.21122 201.794 60.056)" fill="#E5E5E5"/>
<rect x="160.154" y="57.3823" width="24.806" height="24.806" rx="12.403" transform="rotate(-4.21122 160.154 57.3823)" fill="white" stroke="#151B31" stroke-width="1.90815"/>
<rect x="210.079" y="172.571" width="217.529" height="19.0815" rx="9.54076" transform="rotate(-4.21122 210.079 172.571)" fill="#E5E5E5"/>
<rect x="434.615" y="155.799" width="85.8669" height="19.0815" rx="9.54076" transform="rotate(-4.21122 434.615 155.799)" fill="#E5E5E5"/>
<rect x="168.562" y="171.562" width="24.806" height="24.806" rx="12.403" transform="rotate(-4.21122 168.562 171.562)" fill="white" stroke="#151B31" stroke-width="1.90815"/>
<rect x="206.746" y="115.605" width="391.171" height="19.0815" rx="9.54076" transform="rotate(-4.21122 206.746 115.605)" fill="#E5E5E5"/>
<path d="M164.956 212.008L596.937 180.2" stroke="#E5E5E5" stroke-width="1.90815"/>
<path d="M160.752 154.917L592.733 123.11" stroke="#E5E5E5" stroke-width="1.90815"/>
<path d="M203.698 125.101L610.025 96.642" stroke="#151B31" stroke-width="1.90815"/>
<path d="M156.548 97.8274L588.529 66.0197" stroke="#E5E5E5" stroke-width="1.90815"/>
<rect x="155.833" y="106.83" width="41.3001" height="41.3001" rx="20.65" transform="rotate(-4.21122 155.833 106.83)" fill="#151B31"/>
<path d="M188.243 118.335C188.695 118.71 188.973 119.244 189.015 119.819C189.058 120.394 188.861 120.962 188.469 121.4L178.013 133.067C177.621 133.504 177.065 133.775 176.468 133.818C175.871 133.862 175.282 133.676 174.83 133.301L170.009 129.297C169.569 128.919 169.302 128.388 169.265 127.819C169.228 127.25 169.425 126.689 169.813 126.257C170.2 125.824 170.748 125.555 171.338 125.506C171.928 125.458 172.513 125.634 172.966 125.998L176.083 128.586L185.061 118.569C185.453 118.132 186.008 117.861 186.605 117.817C187.202 117.774 187.791 117.96 188.243 118.335Z" fill="white"/>
<rect x="213.241" y="234.232" width="217.529" height="19.0815" rx="9.54076" transform="rotate(-4.21122 213.241 234.232)" fill="#E5E5E5"/>
<rect x="437.777" y="217.459" width="85.8669" height="19.0815" rx="9.54076" transform="rotate(-4.21122 437.777 217.459)" fill="#E5E5E5"/>
<rect x="171.724" y="233.223" width="24.806" height="24.806" rx="12.403" transform="rotate(-4.21122 171.724 233.223)" fill="white" stroke="#151B31" stroke-width="1.90815"/>
<path d="M173.328 273.284L605.309 241.476" stroke="#E5E5E5" stroke-width="1.90815"/>
<rect x="119.655" y="39.3531" width="494.098" height="307.099" rx="11.3488" transform="rotate(-4.21122 119.655 39.3531)" stroke="#E5E5E5" stroke-width="2.02174"/>
<defs>
<filter id="filter0_d_2848_56389" x="0.986786" y="0.412666" width="756.041" height="630.251" filterUnits="userSpaceOnUse" color-interpolation-filters="sRGB">
<feFlood flood-opacity="0" result="BackgroundImageFix"/>
<feColorMatrix in="SourceAlpha" type="matrix" values="0 0 0 0 0 0 0 0 0 0 0 0 0 0 0 0 0 0 127 0" result="hardAlpha"/>
<feOffset dy="109.033"/>
<feGaussianBlur stdDeviation="75.4616"/>
<feColorMatrix type="matrix" values="0 0 0 0 0.0901961 0 0 0 0 0.121569 0 0 0 0 0.27451 0 0 0 0.07 0"/>
<feBlend mode="normal" in2="BackgroundImageFix" result="effect1_dropShadow_2848_56389"/>
<feBlend mode="normal" in="SourceGraphic" in2="effect1_dropShadow_2848_56389" result="shape"/>
</filter>
</defs>
</svg>
